# xmcd CD database file
#
# Track frame offsets:
#	150
#	14660
#	29249
#	45823
#	66300
#	84917
#	110342
#	128656
#	144334
#	162164
#	184536
#	199079
#	215836
#	228858
#	248092
#	271219
#
# Disc length: 3682 seconds
#
# Revision: 0
# Processed by: cddbd v1.4PL0 Copyright (c) Steve Scherf et al.
# Submitted via: Feurio! 1.63 - http://www.feurio.com
#
DISCID=d80e6010
DTITLE=Steve Cochran - Live And Not
DYEAR=1998
DGENRE=blues
TTITLE0=I've Got A Reason
TTITLE1=Don't Need U No More
TTITLE2=Everybody's Girl
TTITLE3=Wolfman Boogie
TTITLE4=Sometimes (You Never Know)
TTITLE5=Maybe It's You
TTITLE6=You Amaze Me
TTITLE7=Leavin
TTITLE8=Trying To Get Thru To You
TTITLE9=Tough Love
TTITLE10=Lady Today
TTITLE11=The Time Is Right
TTITLE12=Tenor Madness
TTITLE13=Change My Phone
TTITLE14=Rebound
TTITLE15=The Teeth Encore
EXTD=1998 Bluetone
EXTT0=Live
EXTT1=Live
EXTT2=Not
EXTT3=Live
EXTT4=Not
EXTT5=Live
EXTT6=Not
EXTT7=Not
EXTT8=Live
EXTT9=Live
EXTT10=Not
EXTT11=Not
EXTT12=Live
EXTT13=Live
EXTT14=Not
EXTT15=Live
PLAYORDER=
